<?xml version="1.0" encoding="UTF-8"?><svg id="Layer_2" xmlns="http://www.w3.org/2000/svg" xmlns:xlink="http://www.w3.org/1999/xlink" viewBox="0 0 198.6 198.6"><defs><style>.cls-1,.cls-2,.cls-3,.cls-4,.cls-5{fill:none;}.cls-6,.cls-7,.cls-8{fill:#fff;}.cls-6,.cls-9{font-size:12px;}.cls-6,.cls-9,.cls-8{font-family:OpenSans-Semibold, 'Open Sans';font-weight:600;}.cls-10{fill:#c6c6c6;}.cls-11{fill:#111623;}.cls-2{stroke:#fff;}.cls-2,.cls-3{stroke-width:5px;}.cls-2,.cls-3,.cls-4{stroke-miterlimit:10;}.cls-3{stroke:#c6c6c6;}.cls-4{stroke:#dadada;stroke-width:.75px;}.cls-8{font-size:15px;}.cls-5{clip-path:url(#clippath);}</style><clipPath id="clippath"><rect class="cls-1" x=".37" y=".6" width="197.62" height="197.62" rx="12" ry="12"/></clipPath></defs><g id="Layer_1-2"><g class="cls-5"><rect class="cls-11" x=".38" y=".38" width="197.85" height="197.85"/><text class="cls-8" transform="translate(26.7 24.21) scale(1.04 1)"><tspan x="0" y="0">Easy deployment</tspan></text><rect class="cls-10" x="42.93" y="52.53" width="124.64" height="31.78" rx="12" ry="12"/><line class="cls-2" x1="97.91" y1="111.83" x2="103.76" y2="91.88"/><polygon class="cls-7" points="107.69 94.41 105.57 85.69 99.08 91.88 107.69 94.41"/><path class="cls-2" d="m122.02,172.39l-5.08,1.65c-1.4.45-2.52,1.5-2.99,2.88l-1.71,4.89c-1.46,4.23-7.63,4.14-9.01-.09l-5.76-17.85c-1.12-3.54,2.27-6.84,5.92-5.73l18.57,5.55c4.36,1.32,4.42,7.29.06,8.7Z"/><path class="cls-3" d="m128.94,151.65c0-19.57-16.91-35.45-37.75-35.45s-37.75,15.88-37.75,35.45,16.91,35.45,37.75,35.45"/><text class="cls-9" transform="translate(68.36 151.65) scale(1.04 1)"><tspan x="0" y="0">DEPLOY</tspan></text><text class="cls-6" transform="translate(68.36 151.65) scale(1.04 1)"><tspan x="0" y="0">DEPLOY</tspan></text><text class="cls-9" transform="translate(19.84 44.48) scale(1.04 1)"><tspan x="0" y="0">Deploy to Vercel in 1-click</tspan></text><text class="cls-6" transform="translate(19.84 44.48) scale(1.04 1)"><tspan x="0" y="0">Deploy to Vercel in 1-click</tspan></text></g><rect class="cls-4" x=".38" y=".38" width="197.85" height="197.85" rx="12" ry="12"/></g></svg>